<svg xmlns="http://www.w3.org/2000/svg" width="22.276" height="17.326" viewBox="0 0 22.276 17.326">
  <path id="tachometer-alt-fast" d="M4.641,43.138a.928.928,0,1,1-.928-.928A.928.928,0,0,1,4.641,43.138Zm6.5-6.5a.928.928,0,1,0-.928-.928A.928.928,0,0,0,11.138,36.641Zm-5.26.309a.928.928,0,1,0,.928.928A.928.928,0,0,0,5.878,36.95Zm10.908.447a.618.618,0,0,1,.092.87l-3.757,4.641a2.487,2.487,0,1,1-.96-.78l3.755-4.639A.619.619,0,0,1,16.787,37.4Zm-4.411,6.978a1.238,1.238,0,1,0-1.238,1.238A1.238,1.238,0,0,0,12.376,44.376Zm6.188-2.166a.928.928,0,1,0,.928.928A.928.928,0,0,0,18.563,42.21Zm3.713.928a11.08,11.08,0,0,1-1.511,5.6,1.224,1.224,0,0,1-1.061.588H2.572a1.224,1.224,0,0,1-1.061-.588,11.138,11.138,0,1,1,20.766-5.6Zm-1.238,0A9.9,9.9,0,1,0,2.58,48.115L19.7,48.088A9.791,9.791,0,0,0,21.039,43.138Z" transform="translate(0 -32)" fill="#a6a0c1"/>
</svg>
