<svg xmlns="http://www.w3.org/2000/svg" width="18.25" height="20.857" viewBox="0 0 18.25 20.857">
  <path id="user-tie" d="M9.125,10.429A5.214,5.214,0,1,0,3.911,5.214,5.214,5.214,0,0,0,9.125,10.429Zm0-9.125A3.911,3.911,0,1,1,5.214,5.214,3.917,3.917,0,0,1,9.125,1.3Zm3.744,11.089-1.617,5.614L9.87,13.863l1.018-1.018a.651.651,0,0,0-.46-1.112H7.821a.651.651,0,0,0-.46,1.112L8.38,13.863,7,18.006,5.381,12.4A5.465,5.465,0,0,0,0,17.859V18.9a1.956,1.956,0,0,0,1.955,1.955H16.295A1.956,1.956,0,0,0,18.25,18.9V17.859A5.471,5.471,0,0,0,12.869,12.392ZM1.955,19.554A.654.654,0,0,1,1.3,18.9V17.859A4.186,4.186,0,0,1,4.436,13.83L6.09,19.554Zm5.9,0,1.267-3.8,1.267,3.8H7.858Zm9.088-.652a.654.654,0,0,1-.652.652H12.16l1.65-5.723a4.186,4.186,0,0,1,3.133,4.029V18.9Z" fill="#886eff"/>
</svg>
